<svg xmlns="http://www.w3.org/2000/svg" viewBox="0 0 400 600" width="400" height="600">
  <defs>
    <linearGradient id="accent" gradientUnits="userSpaceOnUse" x1="0" y1="0" x2="400" y2="600">
      <stop offset="0" stop-color="#F2709C"/>
      <stop offset="1" stop-color="#00FFFF"/>
    </linearGradient>
    <linearGradient id="icon" gradientUnits="userSpaceOnUse" x1="100" y1="140" x2="300" y2="320">
      <stop offset="0" stop-color="#F2709C"/>
      <stop offset="1" stop-color="#00FFFF"/>
    </linearGradient>
    <radialGradient id="glow-pink" cx="0.2" cy="0.15" r="0.7">
      <stop offset="0" stop-color="#F2709C" stop-opacity="0.22"/>
      <stop offset="1" stop-color="#F2709C" stop-opacity="0"/>
    </radialGradient>
    <radialGradient id="glow-cyan" cx="0.9" cy="0.6" r="0.6">
      <stop offset="0" stop-color="#00FFFF" stop-opacity="0.14"/>
      <stop offset="1" stop-color="#00FFFF" stop-opacity="0"/>
    </radialGradient>
    <pattern id="dots" width="20" height="20" patternUnits="userSpaceOnUse">
      <circle cx="2" cy="2" r="1.2" fill="#ffffff" fill-opacity="0.06"/>
    </pattern>
  </defs>
  <rect width="400" height="600" fill="#121821"/>
  <rect width="400" height="600" fill="url(#dots)"/>
  <rect width="400" height="600" fill="url(#glow-pink)"/>
  <rect width="400" height="600" fill="url(#glow-cyan)"/>
  <rect x="18" y="18" width="364" height="564" rx="6" fill="none" stroke="url(#accent)" stroke-width="2" stroke-opacity="0.45"/>
  <g fill="none" stroke="url(#icon)" stroke-width="10" stroke-linecap="round" stroke-linejoin="round">
    <path d="M240.2 213.7 L257.3 216.9 L257.3 235.1 L240.2 238.3 L237.1 245.7 L246.9 260.1 L234.1 272.9 L219.7 263.1 L212.3 266.2 L209.1 283.3 L190.9 283.3 L187.7 266.2 L180.3 263.1 L165.9 272.9 L153.1 260.1 L162.9 245.7 L159.8 238.3 L142.7 235.1 L142.7 216.9 L159.8 213.7 L162.9 206.3 L153.1 191.9 L165.9 179.1 L180.3 188.9 L187.7 185.8 L190.9 168.7 L209.1 168.7 L212.3 185.8 L219.7 188.9 L234.1 179.1 L246.9 191.9 L237.1 206.3 Z"/><circle cx="200" cy="226" r="16"/><path d="M109.8 193.2 A96 96 0 0 1 283.1 178.0"/><path d="M284.5 156.4 L283.1 178.0 L263.7 168.4"/><path d="M290.2 258.8 A96 96 0 0 1 116.9 274.0"/><path d="M115.5 295.6 L116.9 274.0 L136.3 283.6"/>
  </g>
</svg>
